<svg width="288" height="290" viewBox="0 0 288 290" fill="none" xmlns="http://www.w3.org/2000/svg">
<path fill-rule="evenodd" clip-rule="evenodd" d="M145.657 231.032C193.629 231.032 232.518 192.143 232.518 144.171C232.518 96.1998 193.629 57.3111 145.657 57.3111C97.6855 57.3111 58.7968 96.1998 58.7968 144.171C58.7968 192.143 97.6855 231.032 145.657 231.032ZM145.657 239.032C198.047 239.032 240.518 196.561 240.518 144.171C240.518 91.7815 198.047 49.3111 145.657 49.3111C93.2672 49.3111 50.7968 91.7815 50.7968 144.171C50.7968 196.561 93.2672 239.032 145.657 239.032Z" fill="white"/>
<path fill-rule="evenodd" clip-rule="evenodd" d="M164.033 281.739C227.96 281.739 279.784 229.916 279.784 165.988C279.784 102.061 227.96 50.2372 164.033 50.2372C100.105 50.2372 48.2817 102.061 48.2817 165.988C48.2817 229.916 100.105 281.739 164.033 281.739ZM164.033 289.739C232.379 289.739 287.784 234.334 287.784 165.988C287.784 97.6424 232.379 42.2372 164.033 42.2372C95.6869 42.2372 40.2817 97.6424 40.2817 165.988C40.2817 234.334 95.6869 289.739 164.033 289.739Z" fill="white"/>
<path fill-rule="evenodd" clip-rule="evenodd" d="M124.089 239.763C188.017 239.763 239.84 187.939 239.84 124.012C239.84 60.0843 188.017 8.26079 124.089 8.26079C60.1618 8.26079 8.33832 60.0843 8.33832 124.012C8.33832 187.939 60.1618 239.763 124.089 239.763ZM124.089 247.763C192.435 247.763 247.84 192.358 247.84 124.012C247.84 55.666 192.435 0.260788 124.089 0.260788C55.7435 0.260788 0.338318 55.666 0.338318 124.012C0.338318 192.358 55.7435 247.763 124.089 247.763Z" fill="white"/>
</svg>
